<mxfile host="app.diagrams.net" modified="2023-06-28T17:39:35.118Z" agent="Mozilla/5.0 (Macintosh; Intel Mac OS X 10_15_7) AppleWebKit/537.36 (KHTML, like Gecko) Chrome/114.0.0.0 Safari/537.36" etag="EsUkTpNSXPKG6hHCEYit" version="21.5.1" type="device">
  <diagram name="Page-1" id="0783ab3e-0a74-02c8-0abd-f7b4e66b4bec">
    <mxGraphModel dx="1063" dy="544" grid="1" gridSize="10" guides="1" tooltips="1" connect="1" arrows="1" fold="1" page="1" pageScale="1" pageWidth="850" pageHeight="1100" background="none" math="0" shadow="0">
      <root>
        <mxCell id="0" />
        <mxCell id="1" parent="0" />
        <mxCell id="Uo7Irkf6zsS0KQm-anh8-47" value="Warunki pogodowe w normie" style="rounded=1;whiteSpace=wrap;html=1;shadow=0;comic=0;labelBackgroundColor=none;strokeWidth=1;fontFamily=Verdana;fontSize=12;align=center;arcSize=50;" vertex="1" parent="1">
          <mxGeometry x="170" y="700" width="130" height="70" as="geometry" />
        </mxCell>
        <mxCell id="Uo7Irkf6zsS0KQm-anh8-48" value="Silny wiatr" style="rounded=1;whiteSpace=wrap;html=1;shadow=0;comic=0;labelBackgroundColor=none;strokeWidth=1;fontFamily=Verdana;fontSize=12;align=center;arcSize=50;" vertex="1" parent="1">
          <mxGeometry x="330" y="700" width="90" height="40" as="geometry" />
        </mxCell>
        <mxCell id="Uo7Irkf6zsS0KQm-anh8-49" value="Jednostka główna generuje alert o niebezpieczeństwie związany z wystąpieniem trąby powietrznej" style="rounded=1;whiteSpace=wrap;html=1;shadow=0;comic=0;labelBackgroundColor=none;strokeWidth=1;fontFamily=Verdana;fontSize=12;align=center;arcSize=50;" vertex="1" parent="1">
          <mxGeometry x="220" y="790" width="180" height="70" as="geometry" />
        </mxCell>
        <mxCell id="Uo7Irkf6zsS0KQm-anh8-50" value="" style="endArrow=classic;html=1;rounded=0;exitX=0.5;exitY=1;exitDx=0;exitDy=0;entryX=0.5;entryY=0;entryDx=0;entryDy=0;" edge="1" parent="1" source="Uo7Irkf6zsS0KQm-anh8-48" target="Uo7Irkf6zsS0KQm-anh8-49">
          <mxGeometry width="50" height="50" relative="1" as="geometry">
            <mxPoint x="320" y="950" as="sourcePoint" />
            <mxPoint x="370" y="900" as="targetPoint" />
          </mxGeometry>
        </mxCell>
        <mxCell id="Uo7Irkf6zsS0KQm-anh8-51" value="" style="ellipse;whiteSpace=wrap;html=1;rounded=0;shadow=0;comic=0;labelBackgroundColor=none;strokeWidth=1;fillColor=#000000;fontFamily=Verdana;fontSize=12;align=center;" vertex="1" parent="1">
          <mxGeometry x="505" y="80" width="40" height="40" as="geometry" />
        </mxCell>
        <mxCell id="Uo7Irkf6zsS0KQm-anh8-52" value="Aktywacja czujników pomiarowych" style="rounded=1;whiteSpace=wrap;html=1;shadow=0;comic=0;labelBackgroundColor=none;strokeWidth=1;fontFamily=Verdana;fontSize=12;align=center;arcSize=50;" vertex="1" parent="1">
          <mxGeometry x="460" y="160" width="130" height="80" as="geometry" />
        </mxCell>
        <mxCell id="Uo7Irkf6zsS0KQm-anh8-53" value="Czujniki rejestrują dane pomiarowe w określonym interwale czasowym" style="rounded=1;whiteSpace=wrap;html=1;shadow=0;comic=0;labelBackgroundColor=none;strokeWidth=1;fontFamily=Verdana;fontSize=12;align=center;arcSize=50;" vertex="1" parent="1">
          <mxGeometry x="445" y="280" width="160" height="80" as="geometry" />
        </mxCell>
        <mxCell id="Uo7Irkf6zsS0KQm-anh8-54" value="" style="endArrow=classic;html=1;rounded=0;exitX=0.5;exitY=1;exitDx=0;exitDy=0;entryX=0.5;entryY=0;entryDx=0;entryDy=0;" edge="1" parent="1" source="Uo7Irkf6zsS0KQm-anh8-51" target="Uo7Irkf6zsS0KQm-anh8-52">
          <mxGeometry width="50" height="50" relative="1" as="geometry">
            <mxPoint x="515" y="470" as="sourcePoint" />
            <mxPoint x="565" y="420" as="targetPoint" />
          </mxGeometry>
        </mxCell>
        <mxCell id="Uo7Irkf6zsS0KQm-anh8-55" value="" style="endArrow=classic;html=1;rounded=0;exitX=0.5;exitY=1;exitDx=0;exitDy=0;entryX=0.5;entryY=0;entryDx=0;entryDy=0;" edge="1" parent="1" source="Uo7Irkf6zsS0KQm-anh8-52" target="Uo7Irkf6zsS0KQm-anh8-53">
          <mxGeometry width="50" height="50" relative="1" as="geometry">
            <mxPoint x="515" y="490" as="sourcePoint" />
            <mxPoint x="565" y="440" as="targetPoint" />
          </mxGeometry>
        </mxCell>
        <mxCell id="Uo7Irkf6zsS0KQm-anh8-56" value="Dane są zapisywane w pamięci tymczasowej jednostki głównej" style="rounded=1;whiteSpace=wrap;html=1;shadow=0;comic=0;labelBackgroundColor=none;strokeWidth=1;fontFamily=Verdana;fontSize=12;align=center;arcSize=50;" vertex="1" parent="1">
          <mxGeometry x="445" y="380" width="160" height="50" as="geometry" />
        </mxCell>
        <mxCell id="Uo7Irkf6zsS0KQm-anh8-57" value="" style="endArrow=classic;html=1;rounded=0;exitX=0.5;exitY=1;exitDx=0;exitDy=0;entryX=0.5;entryY=0;entryDx=0;entryDy=0;" edge="1" parent="1" source="Uo7Irkf6zsS0KQm-anh8-53" target="Uo7Irkf6zsS0KQm-anh8-56">
          <mxGeometry width="50" height="50" relative="1" as="geometry">
            <mxPoint x="505" y="560" as="sourcePoint" />
            <mxPoint x="555" y="510" as="targetPoint" />
          </mxGeometry>
        </mxCell>
        <mxCell id="Uo7Irkf6zsS0KQm-anh8-58" value="" style="endArrow=classic;html=1;rounded=0;exitX=0.5;exitY=1;exitDx=0;exitDy=0;entryX=0.457;entryY=0.155;entryDx=0;entryDy=0;entryPerimeter=0;" edge="1" parent="1" source="Uo7Irkf6zsS0KQm-anh8-56">
          <mxGeometry width="50" height="50" relative="1" as="geometry">
            <mxPoint x="525" y="570" as="sourcePoint" />
            <mxPoint x="523.6790000000001" y="461.54999999999995" as="targetPoint" />
          </mxGeometry>
        </mxCell>
        <mxCell id="Uo7Irkf6zsS0KQm-anh8-59" value="Jednostka główna przetwarza dane pomiarowe" style="rounded=1;whiteSpace=wrap;html=1;shadow=0;comic=0;labelBackgroundColor=none;strokeWidth=1;fontFamily=Verdana;fontSize=12;align=center;arcSize=50;" vertex="1" parent="1">
          <mxGeometry x="435" y="460" width="190" height="30" as="geometry" />
        </mxCell>
        <mxCell id="Uo7Irkf6zsS0KQm-anh8-60" value="" style="endArrow=classic;html=1;rounded=0;exitX=0.462;exitY=1.097;exitDx=0;exitDy=0;exitPerimeter=0;" edge="1" parent="1" source="Uo7Irkf6zsS0KQm-anh8-59">
          <mxGeometry width="50" height="50" relative="1" as="geometry">
            <mxPoint x="465" y="600" as="sourcePoint" />
            <mxPoint x="523" y="540" as="targetPoint" />
          </mxGeometry>
        </mxCell>
        <mxCell id="Uo7Irkf6zsS0KQm-anh8-61" value="Jednostka główna generuje raport o warunkach pogodowych" style="rounded=1;whiteSpace=wrap;html=1;shadow=0;comic=0;labelBackgroundColor=none;strokeWidth=1;fontFamily=Verdana;fontSize=12;align=center;arcSize=50;" vertex="1" parent="1">
          <mxGeometry x="455" y="540" width="140" height="80" as="geometry" />
        </mxCell>
        <mxCell id="Uo7Irkf6zsS0KQm-anh8-62" value="" style="whiteSpace=wrap;html=1;rounded=0;shadow=0;comic=0;labelBackgroundColor=none;strokeWidth=1;fillColor=#000000;fontFamily=Verdana;fontSize=12;align=center;rotation=0;" vertex="1" parent="1">
          <mxGeometry x="451.5" y="650" width="147" height="10" as="geometry" />
        </mxCell>
        <mxCell id="Uo7Irkf6zsS0KQm-anh8-63" value="" style="endArrow=classic;html=1;rounded=0;exitX=0.5;exitY=1;exitDx=0;exitDy=0;entryX=0.5;entryY=0;entryDx=0;entryDy=0;" edge="1" parent="1" source="Uo7Irkf6zsS0KQm-anh8-61" target="Uo7Irkf6zsS0KQm-anh8-62">
          <mxGeometry width="50" height="50" relative="1" as="geometry">
            <mxPoint x="495" y="750" as="sourcePoint" />
            <mxPoint x="545" y="700" as="targetPoint" />
          </mxGeometry>
        </mxCell>
        <mxCell id="Uo7Irkf6zsS0KQm-anh8-64" value="Wysoka temperatura" style="rounded=1;whiteSpace=wrap;html=1;shadow=0;comic=0;labelBackgroundColor=none;strokeWidth=1;fontFamily=Verdana;fontSize=12;align=center;arcSize=50;" vertex="1" parent="1">
          <mxGeometry x="460" y="700" width="90" height="40" as="geometry" />
        </mxCell>
        <mxCell id="Uo7Irkf6zsS0KQm-anh8-65" value="Obfite opady deszczu" style="rounded=1;whiteSpace=wrap;html=1;shadow=0;comic=0;labelBackgroundColor=none;strokeWidth=1;fontFamily=Verdana;fontSize=12;align=center;arcSize=50;" vertex="1" parent="1">
          <mxGeometry x="605" y="700" width="90" height="40" as="geometry" />
        </mxCell>
        <mxCell id="Uo7Irkf6zsS0KQm-anh8-66" value="Mocno zanieczyszczone powietrze" style="rounded=1;whiteSpace=wrap;html=1;shadow=0;comic=0;labelBackgroundColor=none;strokeWidth=1;fontFamily=Verdana;fontSize=12;align=center;arcSize=50;" vertex="1" parent="1">
          <mxGeometry x="715" y="700" width="110" height="50" as="geometry" />
        </mxCell>
        <mxCell id="Uo7Irkf6zsS0KQm-anh8-67" value="" style="endArrow=classic;html=1;rounded=0;exitX=0.5;exitY=1;exitDx=0;exitDy=0;entryX=0.25;entryY=0;entryDx=0;entryDy=0;" edge="1" parent="1" source="Uo7Irkf6zsS0KQm-anh8-62" target="Uo7Irkf6zsS0KQm-anh8-64">
          <mxGeometry width="50" height="50" relative="1" as="geometry">
            <mxPoint x="535" y="830" as="sourcePoint" />
            <mxPoint x="585" y="780" as="targetPoint" />
          </mxGeometry>
        </mxCell>
        <mxCell id="Uo7Irkf6zsS0KQm-anh8-68" value="" style="endArrow=classic;html=1;rounded=0;exitX=0.75;exitY=1;exitDx=0;exitDy=0;entryX=0.25;entryY=0;entryDx=0;entryDy=0;" edge="1" parent="1" source="Uo7Irkf6zsS0KQm-anh8-62" target="Uo7Irkf6zsS0KQm-anh8-65">
          <mxGeometry width="50" height="50" relative="1" as="geometry">
            <mxPoint x="665" y="820" as="sourcePoint" />
            <mxPoint x="715" y="770" as="targetPoint" />
            <Array as="points">
              <mxPoint x="562" y="690" />
              <mxPoint x="615" y="690" />
            </Array>
          </mxGeometry>
        </mxCell>
        <mxCell id="Uo7Irkf6zsS0KQm-anh8-69" value="" style="endArrow=classic;html=1;rounded=0;exitX=0.915;exitY=1.264;exitDx=0;exitDy=0;exitPerimeter=0;entryX=0.655;entryY=0.033;entryDx=0;entryDy=0;entryPerimeter=0;" edge="1" parent="1" source="Uo7Irkf6zsS0KQm-anh8-62" target="Uo7Irkf6zsS0KQm-anh8-66">
          <mxGeometry width="50" height="50" relative="1" as="geometry">
            <mxPoint x="615" y="850" as="sourcePoint" />
            <mxPoint x="665" y="800" as="targetPoint" />
            <Array as="points">
              <mxPoint x="586" y="680" />
              <mxPoint x="655" y="680" />
              <mxPoint x="787" y="680" />
            </Array>
          </mxGeometry>
        </mxCell>
        <mxCell id="Uo7Irkf6zsS0KQm-anh8-70" value="Jednostka główna generuje alert o niebezpieczeństwie związanym z wystąpieniem pożarów" style="rounded=1;whiteSpace=wrap;html=1;shadow=0;comic=0;labelBackgroundColor=none;strokeWidth=1;fontFamily=Verdana;fontSize=12;align=center;arcSize=50;" vertex="1" parent="1">
          <mxGeometry x="407.5" y="790" width="187.5" height="70" as="geometry" />
        </mxCell>
        <mxCell id="Uo7Irkf6zsS0KQm-anh8-71" value="Jednostka główna generuje alert o niebezpieczeństwie związanym z wystąpieniem podtopień" style="rounded=1;whiteSpace=wrap;html=1;shadow=0;comic=0;labelBackgroundColor=none;strokeWidth=1;fontFamily=Verdana;fontSize=12;align=center;arcSize=50;" vertex="1" parent="1">
          <mxGeometry x="605" y="790" width="180" height="70" as="geometry" />
        </mxCell>
        <mxCell id="Uo7Irkf6zsS0KQm-anh8-72" value="" style="endArrow=classic;html=1;rounded=0;exitX=0.5;exitY=1;exitDx=0;exitDy=0;entryX=0.5;entryY=0;entryDx=0;entryDy=0;" edge="1" parent="1" source="Uo7Irkf6zsS0KQm-anh8-64" target="Uo7Irkf6zsS0KQm-anh8-70">
          <mxGeometry width="50" height="50" relative="1" as="geometry">
            <mxPoint x="500" y="970" as="sourcePoint" />
            <mxPoint x="550" y="920" as="targetPoint" />
          </mxGeometry>
        </mxCell>
        <mxCell id="Uo7Irkf6zsS0KQm-anh8-73" value="" style="endArrow=classic;html=1;rounded=0;exitX=0.5;exitY=1;exitDx=0;exitDy=0;entryX=0.5;entryY=0;entryDx=0;entryDy=0;" edge="1" parent="1" source="Uo7Irkf6zsS0KQm-anh8-65" target="Uo7Irkf6zsS0KQm-anh8-71">
          <mxGeometry width="50" height="50" relative="1" as="geometry">
            <mxPoint x="610" y="940" as="sourcePoint" />
            <mxPoint x="660" y="890" as="targetPoint" />
          </mxGeometry>
        </mxCell>
        <mxCell id="Uo7Irkf6zsS0KQm-anh8-74" value="" style="whiteSpace=wrap;html=1;rounded=0;shadow=0;comic=0;labelBackgroundColor=none;strokeWidth=1;fillColor=#000000;fontFamily=Verdana;fontSize=12;align=center;rotation=0;" vertex="1" parent="1">
          <mxGeometry x="405" y="910" width="390" height="10" as="geometry" />
        </mxCell>
        <mxCell id="Uo7Irkf6zsS0KQm-anh8-75" value="" style="endArrow=classic;html=1;rounded=0;exitX=0.5;exitY=1;exitDx=0;exitDy=0;entryX=0.25;entryY=0;entryDx=0;entryDy=0;" edge="1" parent="1" source="Uo7Irkf6zsS0KQm-anh8-70" target="Uo7Irkf6zsS0KQm-anh8-74">
          <mxGeometry width="50" height="50" relative="1" as="geometry">
            <mxPoint x="690" y="760" as="sourcePoint" />
            <mxPoint x="740" y="710" as="targetPoint" />
          </mxGeometry>
        </mxCell>
        <mxCell id="Uo7Irkf6zsS0KQm-anh8-76" value="" style="endArrow=classic;html=1;rounded=0;exitX=0.5;exitY=1;exitDx=0;exitDy=0;entryX=0.75;entryY=0;entryDx=0;entryDy=0;" edge="1" parent="1" source="Uo7Irkf6zsS0KQm-anh8-71" target="Uo7Irkf6zsS0KQm-anh8-74">
          <mxGeometry width="50" height="50" relative="1" as="geometry">
            <mxPoint x="690" y="760" as="sourcePoint" />
            <mxPoint x="740" y="710" as="targetPoint" />
          </mxGeometry>
        </mxCell>
        <mxCell id="Uo7Irkf6zsS0KQm-anh8-77" value="" style="endArrow=classic;html=1;rounded=0;exitX=0.5;exitY=1;exitDx=0;exitDy=0;" edge="1" parent="1" source="Uo7Irkf6zsS0KQm-anh8-74">
          <mxGeometry width="50" height="50" relative="1" as="geometry">
            <mxPoint x="570" y="1020" as="sourcePoint" />
            <mxPoint x="600" y="980" as="targetPoint" />
          </mxGeometry>
        </mxCell>
        <mxCell id="Uo7Irkf6zsS0KQm-anh8-78" value="Wygenerowane alerty zostają przesłane do administratora danych oraz centrum zarządzania kryzysowego" style="rounded=1;whiteSpace=wrap;html=1;shadow=0;comic=0;labelBackgroundColor=none;strokeWidth=1;fontFamily=Verdana;fontSize=12;align=center;arcSize=50;" vertex="1" parent="1">
          <mxGeometry x="485" y="980" width="230" height="90" as="geometry" />
        </mxCell>
        <mxCell id="Uo7Irkf6zsS0KQm-anh8-79" value="Jednostka główna generuje alert o niebezpieczeństwie związanym z wystąpieniem szkodliwego smogu" style="rounded=1;whiteSpace=wrap;html=1;shadow=0;comic=0;labelBackgroundColor=none;strokeWidth=1;fontFamily=Verdana;fontSize=12;align=center;arcSize=50;" vertex="1" parent="1">
          <mxGeometry x="795" y="790" width="187.5" height="65" as="geometry" />
        </mxCell>
        <mxCell id="Uo7Irkf6zsS0KQm-anh8-80" value="" style="endArrow=classic;html=1;rounded=0;exitX=0.112;exitY=1.264;exitDx=0;exitDy=0;exitPerimeter=0;entryX=0.5;entryY=0;entryDx=0;entryDy=0;" edge="1" parent="1" source="Uo7Irkf6zsS0KQm-anh8-62" target="Uo7Irkf6zsS0KQm-anh8-47">
          <mxGeometry width="50" height="50" relative="1" as="geometry">
            <mxPoint x="410" y="680" as="sourcePoint" />
            <mxPoint x="210" y="610" as="targetPoint" />
            <Array as="points">
              <mxPoint x="413" y="680" />
              <mxPoint x="235" y="680" />
            </Array>
          </mxGeometry>
        </mxCell>
        <mxCell id="Uo7Irkf6zsS0KQm-anh8-81" value="" style="endArrow=classic;html=1;rounded=0;exitX=0.25;exitY=1;exitDx=0;exitDy=0;entryX=0.75;entryY=0;entryDx=0;entryDy=0;" edge="1" parent="1" source="Uo7Irkf6zsS0KQm-anh8-62" target="Uo7Irkf6zsS0KQm-anh8-48">
          <mxGeometry width="50" height="50" relative="1" as="geometry">
            <mxPoint x="460" y="830" as="sourcePoint" />
            <mxPoint x="510" y="780" as="targetPoint" />
            <Array as="points">
              <mxPoint x="433" y="690" />
            </Array>
          </mxGeometry>
        </mxCell>
        <mxCell id="Uo7Irkf6zsS0KQm-anh8-82" value="" style="endArrow=classic;html=1;rounded=0;exitX=0.5;exitY=1;exitDx=0;exitDy=0;entryX=0;entryY=0.5;entryDx=0;entryDy=0;" edge="1" parent="1" source="Uo7Irkf6zsS0KQm-anh8-47" target="Uo7Irkf6zsS0KQm-anh8-56">
          <mxGeometry width="50" height="50" relative="1" as="geometry">
            <mxPoint x="140" y="670" as="sourcePoint" />
            <mxPoint x="310" y="400" as="targetPoint" />
            <Array as="points">
              <mxPoint x="235" y="790" />
              <mxPoint x="150" y="790" />
              <mxPoint x="150" y="405" />
            </Array>
          </mxGeometry>
        </mxCell>
        <mxCell id="Uo7Irkf6zsS0KQm-anh8-83" value="" style="endArrow=classic;html=1;rounded=0;exitX=0.5;exitY=1;exitDx=0;exitDy=0;entryX=0.5;entryY=0;entryDx=0;entryDy=0;" edge="1" parent="1" source="Uo7Irkf6zsS0KQm-anh8-66" target="Uo7Irkf6zsS0KQm-anh8-79">
          <mxGeometry width="50" height="50" relative="1" as="geometry">
            <mxPoint x="760" y="960" as="sourcePoint" />
            <mxPoint x="810" y="910" as="targetPoint" />
          </mxGeometry>
        </mxCell>
        <mxCell id="Uo7Irkf6zsS0KQm-anh8-84" value="" style="endArrow=classic;html=1;rounded=0;exitX=0.75;exitY=1;exitDx=0;exitDy=0;entryX=0.09;entryY=0;entryDx=0;entryDy=0;entryPerimeter=0;" edge="1" parent="1" source="Uo7Irkf6zsS0KQm-anh8-49" target="Uo7Irkf6zsS0KQm-anh8-74">
          <mxGeometry width="50" height="50" relative="1" as="geometry">
            <mxPoint x="320" y="990" as="sourcePoint" />
            <mxPoint x="480" y="890" as="targetPoint" />
            <Array as="points">
              <mxPoint x="355" y="890" />
              <mxPoint x="440" y="890" />
            </Array>
          </mxGeometry>
        </mxCell>
        <mxCell id="Uo7Irkf6zsS0KQm-anh8-85" value="" style="endArrow=classic;html=1;rounded=0;exitX=0.5;exitY=1;exitDx=0;exitDy=0;entryX=0.852;entryY=-0.391;entryDx=0;entryDy=0;entryPerimeter=0;" edge="1" parent="1" source="Uo7Irkf6zsS0KQm-anh8-79" target="Uo7Irkf6zsS0KQm-anh8-74">
          <mxGeometry width="50" height="50" relative="1" as="geometry">
            <mxPoint x="870" y="940" as="sourcePoint" />
            <mxPoint x="730" y="880" as="targetPoint" />
            <Array as="points">
              <mxPoint x="890" y="880" />
              <mxPoint x="737" y="880" />
            </Array>
          </mxGeometry>
        </mxCell>
        <mxCell id="Uo7Irkf6zsS0KQm-anh8-86" value="" style="endArrow=classic;html=1;rounded=0;exitX=0.5;exitY=1;exitDx=0;exitDy=0;" edge="1" parent="1" source="Uo7Irkf6zsS0KQm-anh8-78">
          <mxGeometry width="50" height="50" relative="1" as="geometry">
            <mxPoint x="590" y="1080" as="sourcePoint" />
            <mxPoint x="600" y="1130" as="targetPoint" />
          </mxGeometry>
        </mxCell>
        <mxCell id="Uo7Irkf6zsS0KQm-anh8-87" value="" style="shape=mxgraph.bpmn.shape;html=1;verticalLabelPosition=bottom;labelBackgroundColor=#ffffff;verticalAlign=top;perimeter=ellipsePerimeter;outline=end;symbol=terminate;rounded=0;shadow=0;comic=0;strokeWidth=1;fontFamily=Verdana;fontSize=12;align=center;" vertex="1" parent="1">
          <mxGeometry x="580" y="1130" width="40" height="40" as="geometry" />
        </mxCell>
        <mxCell id="Uo7Irkf6zsS0KQm-anh8-88" value="&lt;font style=&quot;font-size: 24px;&quot;&gt;Alarmowy&lt;/font&gt;" style="text;html=1;strokeColor=none;fillColor=none;align=center;verticalAlign=middle;whiteSpace=wrap;rounded=0;" vertex="1" parent="1">
          <mxGeometry x="300" y="10" width="470" height="30" as="geometry" />
        </mxCell>
      </root>
    </mxGraphModel>
  </diagram>
</mxfile>
